<?xml version="1.0" ?><svg baseProfile="tiny" id="Layer_1" version="1.2" viewBox="0 0 512 512" xml:space="preserve" xmlns="http://www.w3.org/2000/svg" xmlns:xlink="http://www.w3.org/1999/xlink"><g id="XMLID_973_"><circle cx="256" cy="256" fill="#967BAD" id="XMLID_877_" r="256"/><path d="M512,256c0-3.3-0.1-6.5-0.2-9.8L366,98.6c0-1.4-1.3-2.6-2.9-2.6h-34.5   c-1.6,0-2.9,1.2-2.9,2.6v5.8l9.1,6.2h-9.1v15.7l-8.4-8.3H152.5c-12.5,0-22.6,10.1-22.6,22.6v155.2l9.1,5.6h-13.8V375l9.1,5.6h-4.5   v12.8c0,7.4,3.6,14,9.1,18.1c0.9,1.2,62.2,62.6,99.6,99.9c5.8,0.4,11.6,0.6,17.4,0.6C397.4,512,512,397.4,512,256z" fill="#826B9B" id="XMLID_924_"/><g id="XMLID_841_"><path d="M195,323h-6.8v30.5h6.8c3.3,0,6-1.1,7.9-3.4c2-2.3,2.9-5.2,2.9-8.7V335    c0-3.5-1-6.4-2.9-8.6C201,324.1,198.3,323,195,323z" fill="#FFFFFF" id="XMLID_842_"/><path d="M158.2,323h-9v14.7h9c2.6,0,4.5-0.7,5.8-2.1c1.3-1.4,1.9-3.1,1.9-5.2    c0-2.1-0.6-3.9-1.9-5.3C162.7,323.7,160.7,323,158.2,323z" fill="#FFFFFF" id="XMLID_843_"/><path d="M257.1,338.2l42-36.8H125.2V375h173.9L257.1,338.2z M168.9,339.7    c-2.6,2.4-6.2,3.5-10.8,3.5h-9V359h-6.9v-41.6h15.9c4.6,0,8.2,1.2,10.8,3.6c2.6,2.4,3.9,5.5,3.9,9.4    C172.8,334.3,171.5,337.4,168.9,339.7z M212.8,341.4c0,5.2-1.7,9.4-5,12.7c-3.3,3.3-7.6,4.9-12.9,4.9h-13.7v-41.6H195    c5.3,0,9.6,1.6,12.9,4.9c3.3,3.3,5,7.5,5,12.7V341.4z M248.8,323h-19.7v12.7h16.8v5.6h-16.8V359h-6.9v-41.6h26.6V323z" fill="#FFFFFF" id="XMLID_844_"/><path d="M383.9,167.1H366v-34.6h-40.4v34.6h-17.8c-2.5,0-3.9,2.7-2.2,4.4l38,44.1    c1.2,1.1,3.2,1.1,4.3,0l38-44.1C387.7,169.8,386.4,167.1,383.9,167.1z" fill="#FFFFFF" id="XMLID_849_"/><rect fill="#FFFFFF" height="15.7" id="XMLID_850_" width="40.4" x="325.7" y="110.6"/><path d="M341.4,224v166c0,9.6-7.8,17.5-17.5,17.5H155.9c-9.6,0-17.5-7.8-17.5-17.5v-9.4h-8.6v12.8    c0,12.5,10.1,22.6,22.6,22.6h174.9c12.5,0,22.6-10.1,22.6-22.6V224.1c-1.3,0.5-2.7,0.8-4.1,0.8C344.3,224.8,342.8,224.5,341.4,224    z" fill="#FFFFFF" id="XMLID_851_"/><path d="M138.4,144.1c0-9.6,7.8-17.5,17.5-17.5h161.4v-2.5v-6.1H152.5    c-12.5,0-22.6,10.1-22.6,22.6v155.2h8.6V144.1z" fill="#FFFFFF" id="XMLID_852_"/><path d="M299,176.6H164v12.4h145.7l-10.3-11.9C299.3,177,299.1,176.8,299,176.6z" fill="#FFFFFF" id="XMLID_853_"/><rect fill="#FFFFFF" height="12.4" id="XMLID_854_" width="151.8" x="164" y="196.8"/><rect fill="#FFFFFF" height="12.4" id="XMLID_855_" width="151.8" x="164" y="217"/><rect fill="#FFFFFF" height="12.4" id="XMLID_856_" width="151.8" x="164" y="237.2"/><rect fill="#FFFFFF" height="12.4" id="XMLID_857_" width="118.9" x="164" y="257.3"/><path d="M366,98.6c0-1.4-1.3-2.6-2.9-2.6h-34.5c-1.6,0-2.9,1.2-2.9,2.6v5.8H366V98.6z" fill="#FFFFFF" id="XMLID_925_"/></g></g></svg>